<svg width="182" height="101" viewBox="0 0 182 101" fill="none" xmlns="http://www.w3.org/2000/svg">
<path d="M39.3698 44.0625C39.1823 43.3958 38.8438 42.7813 38.3646 42.25C37.8906 41.7188 37.2448 41.2761 36.4427 40.9427C35.6562 40.6094 34.6615 40.4427 33.4896 40.4427H27.5365C27.1354 40.4427 26.8125 40.7656 26.8125 41.1615V58.0886C26.8125 58.4896 27.1354 58.8073 27.5365 58.8073H29.8281C30.2292 58.8073 30.5521 58.4896 30.5521 58.0886V51.349H33.4896C34.6615 51.349 35.6562 51.1823 36.4427 50.8542C37.2396 50.5156 37.8854 50.0781 38.3646 49.5469C38.8438 49.0104 39.1823 48.4011 39.3698 47.7292C39.5469 47.1042 39.6354 46.4844 39.6354 45.8958C39.6354 45.3073 39.5469 44.6927 39.3698 44.0625ZM35.5417 46.9375C35.401 47.1823 35.2188 47.3646 34.9896 47.4896C34.724 47.6406 34.4063 47.7448 34.0521 47.8021C33.6563 47.8698 33.25 47.9011 32.8438 47.9011H30.5521V43.8906H32.8438C33.25 43.8906 33.6563 43.9219 34.0521 43.9896C34.4063 44.0469 34.724 44.1511 34.9896 44.3021C35.2188 44.4271 35.401 44.6094 35.5417 44.8594C35.6823 45.1042 35.7552 45.4531 35.7552 45.8958C35.7552 46.3386 35.6823 46.6875 35.5417 46.9375Z" fill="black"/>
<path d="M48.6615 45.9323C47.9479 45.6927 47.0625 45.6875 46.2188 45.9375C45.8125 46.0573 45.4323 46.2188 45.0885 46.4271C44.9688 46.4948 44.8542 46.5729 44.7448 46.6511C44.6927 46.3021 44.3958 46.0365 44.0313 46.0365H41.8802C41.4844 46.0365 41.1615 46.3594 41.1615 46.7552V58.0886C41.1615 58.4896 41.4844 58.8125 41.8802 58.8125H44.0313C44.4323 58.8125 44.7552 58.4896 44.7552 58.0886V52.4011C44.7552 51.3542 44.9688 50.5938 45.3958 50.1458C45.8125 49.7031 46.4323 49.4844 47.2865 49.4844C47.4167 49.4844 47.5469 49.5 47.6823 49.5208C47.8385 49.5521 47.9948 49.5833 48.1458 49.625C48.3594 49.6875 48.5833 49.6406 48.7604 49.5156C48.9375 49.3854 49.0469 49.1823 49.0573 48.9636L49.151 46.6458C49.1667 46.3229 48.9635 46.0313 48.6615 45.9323Z" fill="black"/>
<path d="M61.2813 47.7083C60.6771 47.099 59.9531 46.6198 59.1406 46.276C58.3229 45.9271 57.4323 45.75 56.4948 45.75C55.5521 45.75 54.6615 45.9271 53.8438 46.276C53.0313 46.6198 52.3073 47.099 51.7031 47.7083C51.099 48.3125 50.6198 49.0208 50.276 49.8177C49.9271 50.625 49.75 51.5 49.75 52.4219C49.75 53.349 49.9219 54.224 50.2708 55.0365C50.6198 55.8438 51.1042 56.5573 51.7083 57.1563C52.3125 57.75 53.0313 58.2292 53.8438 58.5729C54.6615 58.9219 55.5521 59.0938 56.4948 59.0938C57.4323 59.0938 58.3229 58.9219 59.1406 58.5729C59.9531 58.2292 60.6719 57.75 61.276 57.1563C61.8854 56.5573 62.3646 55.8438 62.7135 55.0365C63.0625 54.224 63.2396 53.349 63.2396 52.4219C63.2396 51.5 63.0625 50.625 62.7135 49.8177C62.3646 49.0208 61.8854 48.3125 61.2813 47.7083ZM59.2813 53.7708C59.1406 54.1615 58.9427 54.4948 58.6927 54.7656C58.4375 55.0365 58.1354 55.25 57.7604 55.4063C57.3906 55.5677 56.9635 55.651 56.4948 55.651C56.0208 55.651 55.5938 55.5677 55.224 55.4063C54.849 55.25 54.5469 55.0365 54.2917 54.7656C54.0417 54.4948 53.8438 54.1615 53.7031 53.7708C53.5573 53.3646 53.4844 52.9115 53.4844 52.4219C53.4844 51.9375 53.5573 51.4844 53.7031 51.0781C53.8438 50.6875 54.0417 50.349 54.2969 50.0781C54.5469 49.8073 54.849 49.599 55.224 49.4375C55.5938 49.2813 56.0208 49.1979 56.4948 49.1979C56.9635 49.1979 57.3906 49.2813 57.7604 49.4375C58.1354 49.599 58.4375 49.8073 58.6927 50.0781C58.9427 50.349 59.1406 50.6875 59.2813 51.0781C59.4271 51.4844 59.5 51.9375 59.5 52.4219C59.5 52.9115 59.4271 53.3646 59.2813 53.7708Z" fill="black"/>
<path d="M82.8177 47.6302C82.4271 47.0625 81.8958 46.6042 81.2344 46.2604C80.5781 45.9219 79.7396 45.75 78.7552 45.75C77.9531 45.75 77.1563 45.9531 76.3854 46.3594C75.9271 46.599 75.5208 46.9115 75.1823 47.2969C74.8698 46.9271 74.5208 46.6198 74.1302 46.3802C73.4479 45.9635 72.6042 45.75 71.6302 45.75C71.0365 45.75 70.4844 45.8438 69.9896 46.0208C69.5052 46.1927 69.0833 46.4063 68.7188 46.6563C68.7031 46.6667 68.6823 46.6823 68.6615 46.6927C68.6302 46.3281 68.3229 46.0365 67.9479 46.0365H65.9375C65.5417 46.0365 65.2188 46.3594 65.2188 46.7552V58.0885C65.2188 58.4896 65.5417 58.8073 65.9375 58.8073H68.0885C68.4896 58.8073 68.8125 58.4896 68.8125 58.0885V52.2083C68.8125 51.651 68.8802 51.1719 69.0104 50.776C69.1406 50.401 69.3073 50.0938 69.5104 49.8646C69.7135 49.6406 69.9375 49.4792 70.1979 49.3698C70.4688 49.2552 70.7448 49.1979 71.0313 49.1979C71.4167 49.1979 71.724 49.2604 71.9219 49.375C72.1146 49.4844 72.2604 49.6406 72.3646 49.8438C72.4896 50.0938 72.5781 50.4063 72.625 50.7656C72.6771 51.1823 72.7031 51.651 72.7031 52.1615V58.0885C72.7031 58.4844 73.026 58.8073 73.4219 58.8073H75.5729C75.9688 58.8073 76.2917 58.4844 76.2917 58.0885V51.8958C76.2917 51.0469 76.474 50.3594 76.8333 49.849C77.1406 49.4115 77.6719 49.1979 78.4635 49.1979C78.8542 49.1979 79.1719 49.2604 79.375 49.375C79.5833 49.4948 79.7396 49.651 79.849 49.8438C79.9792 50.0625 80.0625 50.3281 80.1094 50.6354C80.1615 51 80.1823 51.3854 80.1823 51.776V58.0885C80.1823 58.4844 80.5052 58.8073 80.9063 58.8073H83.0573C83.4531 58.8073 83.776 58.4844 83.776 58.0885V51.4896C83.776 50.8073 83.7135 50.1354 83.5833 49.4948C83.4427 48.8073 83.1875 48.1823 82.8177 47.6302Z" fill="black"/>
<path d="M97.8958 47.7031C97.3281 47.0885 96.6302 46.6042 95.8333 46.2604C95.0365 45.9219 94.1406 45.75 93.1719 45.75C92.3073 45.75 91.4531 45.9427 90.6354 46.3177C90.375 46.4375 90.125 46.5781 89.901 46.7292C89.8854 46.3438 89.5677 46.0365 89.1771 46.0365H87.026C86.6302 46.0365 86.3073 46.3594 86.3073 46.7552V64.8333C86.3073 65.2292 86.6302 65.5521 87.026 65.5521H89.1771C89.5781 65.5521 89.901 65.2292 89.901 64.8333V58.1354C90.1042 58.2708 90.3281 58.401 90.5677 58.5104C91.3802 58.901 92.2552 59.0938 93.1719 59.0938C94.1406 59.0938 95.0365 58.9219 95.8333 58.5833C96.6302 58.2448 97.3229 57.7656 97.8906 57.1615C98.4583 56.5573 98.8958 55.8438 99.2031 55.0313C99.5 54.2292 99.6562 53.349 99.6562 52.4219C99.6562 51.5104 99.5 50.6458 99.2031 49.8385C98.901 49.0313 98.4583 48.3125 97.8958 47.7031ZM95.6979 53.7708C95.5573 54.1615 95.3594 54.4948 95.1094 54.7656C94.8542 55.0365 94.5521 55.25 94.1771 55.4063C93.8073 55.5677 93.3802 55.651 92.9115 55.651C92.4375 55.651 92.0104 55.5677 91.6406 55.4063C91.2656 55.25 90.9635 55.0365 90.7083 54.7656C90.4583 54.4948 90.2604 54.1615 90.1198 53.7708C89.974 53.3646 89.901 52.9115 89.901 52.4219C89.901 51.9375 89.974 51.4844 90.1198 51.0781C90.2604 50.6875 90.4583 50.349 90.7083 50.0833C90.9635 49.8073 91.2656 49.599 91.6406 49.4375C92.0104 49.2813 92.4375 49.1979 92.9062 49.1979C93.3802 49.1979 93.8073 49.2813 94.1771 49.4375C94.5521 49.599 94.8542 49.8073 95.1042 50.0781C95.3594 50.349 95.5573 50.6875 95.6979 51.0781C95.8437 51.4844 95.9167 51.9375 95.9167 52.4219C95.9167 52.9115 95.8437 53.3646 95.6979 53.7708Z" fill="black"/>
<path d="M108.859 55.4115C108.641 55.2813 108.365 55.2813 108.141 55.4063C107.99 55.4948 107.823 55.5521 107.635 55.5885C107.406 55.6302 107.182 55.651 106.969 55.651C106.604 55.651 106.474 55.5729 106.438 55.5521C106.333 55.4792 106.26 55.3854 106.208 55.2656C106.141 55.099 106.099 54.8958 106.089 54.6719C106.073 54.375 106.063 54.0729 106.063 53.7604V49.3438H108.427C108.823 49.3438 109.146 49.0208 109.146 48.6198V46.7552C109.146 46.3594 108.828 46.0365 108.427 46.0365H106.063V43.5781C106.063 43.1823 105.74 42.8594 105.344 42.8594H103.193C102.797 42.8594 102.474 43.1771 102.474 43.5781V46.0365H100.708C100.307 46.0365 99.9844 46.3594 99.9844 46.7552V48.6198C99.9844 49.0208 100.307 49.3438 100.708 49.3438H102.474V54.526C102.474 55.0104 102.495 55.4948 102.536 55.9635C102.583 56.5208 102.745 57.0417 103.016 57.5C103.297 57.9844 103.734 58.3802 104.313 58.6719C104.875 58.9583 105.609 59.099 106.563 59.099C106.823 59.099 107.161 59.0677 107.604 59.0052C108.109 58.9375 108.516 58.8125 108.854 58.6198C109.078 58.4948 109.219 58.2552 109.219 57.9948V56.0313C109.219 55.776 109.083 55.5417 108.859 55.4115Z" fill="black"/>
<path d="M133.65 46.7252C133.562 46.4886 133.423 46.3056 133.233 46.1739C133.043 46.0422 132.828 45.9739 132.594 45.9739C132.36 45.9617 132.142 46.0202 131.945 46.152C131.747 46.2837 131.606 46.474 131.516 46.7252L125.932 60.2587C125.888 60.3904 125.866 60.51 125.866 60.61C125.866 60.8905 125.947 61.1222 126.108 61.3052C126.269 61.4906 126.517 61.5808 126.854 61.5808C127.076 61.5808 127.274 61.515 127.449 61.3832C127.625 61.2515 127.757 61.0661 127.844 60.8319L129.147 57.7023H135.892L137.211 60.8319C137.299 61.0515 137.436 61.232 137.619 61.371C137.802 61.5101 138.004 61.5808 138.224 61.5808C138.487 61.5808 138.726 61.4808 138.938 61.2832C139.151 61.0856 139.258 60.8246 139.258 60.5002C139.258 60.3538 139.229 60.2075 139.17 60.0611L133.65 46.7252ZM130.03 55.5849L132.499 49.6549L134.999 55.5849H130.03Z" fill="black"/>
<path d="M143.293 46.3837C143.066 46.169 142.805 46.0641 142.512 46.0641C142.161 46.0641 141.875 46.169 141.653 46.3837C141.434 46.5959 141.324 46.8643 141.324 47.1887V60.3685C141.324 60.6929 141.427 60.9612 141.632 61.1735C141.836 61.3857 142.117 61.493 142.468 61.493C142.776 61.493 143.044 61.3857 143.271 61.1735C143.498 60.9612 143.62 60.6929 143.634 60.3685V47.1887C143.634 46.8643 143.52 46.5959 143.293 46.3837Z" fill="black"/>
<mask id="mask0_1_56" style="mask-type:luminance" maskUnits="userSpaceOnUse" x="137" y="31" width="20" height="20">
<path d="M137.824 31.8281H156.297V50.1598H137.824V31.8281Z" fill="white"/>
</mask>
<g mask="url(#mask0_1_56)">
<path d="M155.975 40.4854L155.943 40.4805L155.831 40.4659H155.829L155.811 40.4634C154.626 40.3707 153.494 40.078 152.465 39.5706C151.611 39.1706 150.823 38.629 150.138 37.9411C148.615 36.4165 147.815 34.4041 147.674 32.2233C147.674 32.216 147.674 32.2062 147.671 32.1989C147.671 32.1696 147.669 32.1428 147.666 32.116C147.63 31.9599 147.488 31.8428 147.323 31.8428C147.137 31.8428 146.986 31.9867 146.971 32.1696L146.966 32.1989L146.949 32.316V32.3184L146.947 32.338L146.949 32.3355C146.805 34.2163 146.171 35.9677 145 37.3825C144.825 37.6021 144.634 37.8143 144.432 38.0168C142.912 39.5413 140.905 40.3439 138.729 40.4854C138.719 40.4854 138.712 40.4878 138.702 40.4878C138.675 40.4903 138.648 40.4927 138.619 40.4951C138.465 40.5317 138.348 40.6708 138.348 40.8391C138.348 41.0245 138.492 41.1757 138.675 41.1903V41.1928L138.702 41.1952L138.821 41.2123C138.821 41.2123 138.821 41.2123 138.824 41.2123L138.841 41.2147C140.973 41.3757 142.937 42.1758 144.432 43.6736C144.925 44.1688 145.342 44.7152 145.688 45.3031C146.449 46.5374 146.871 47.9571 146.971 49.4597C146.971 49.467 146.971 49.4719 146.971 49.4792C146.974 49.5085 146.976 49.5378 146.979 49.5671C147.015 49.7207 147.154 49.8354 147.323 49.8354C147.508 49.8354 147.659 49.6939 147.674 49.5134L147.679 49.4792L147.696 49.367C147.696 49.367 147.696 49.367 147.696 49.3646L147.698 49.3475H147.696C147.854 47.3033 148.61 45.4177 150.02 43.9566C150.108 43.8566 150.201 43.7565 150.296 43.6614C151.796 42.1368 153.777 41.3343 155.921 41.1928C155.929 41.1903 155.936 41.1903 155.941 41.1903C155.97 41.1879 155.999 41.1855 156.029 41.183C156.182 41.1464 156.297 41.0074 156.297 40.8391C156.297 40.6537 156.155 40.5025 155.975 40.4878V40.4854Z" fill="black"/>
</g>
<mask id="mask1_1_56" style="mask-type:luminance" maskUnits="userSpaceOnUse" x="119" y="36" width="34" height="34">
<path d="M119.297 36.4214H152.187V69.2965H119.297V36.4214Z" fill="white"/>
</mask>
<g mask="url(#mask1_1_56)">
<path d="M149.406 49.6476V64.9179C149.406 66.1229 148.43 67.1011 147.227 67.1011H123.649C122.446 67.1011 121.473 66.1229 121.473 64.9179V41.2831C121.473 40.078 122.446 39.1023 123.649 39.1023H138.521C139.124 39.1023 139.609 38.612 139.609 38.0119C139.609 37.4094 139.124 36.9191 138.521 36.9191H123.649C121.246 36.9191 119.297 38.873 119.297 41.2831V64.9179C119.297 67.3279 121.246 69.2819 123.649 69.2819H147.227C149.633 69.2819 151.582 67.3279 151.582 64.9179V49.6451C151.582 49.0451 151.094 48.5547 150.494 48.5547C149.891 48.5547 149.406 49.0451 149.406 49.6451V49.6476Z" fill="black"/>
</g>
</svg>
